<svg xmlns="http://www.w3.org/2000/svg" viewBox="0 0 32 32" fill="none">
  <defs>
    <linearGradient id="fireGradient" x1="50%" y1="100%" x2="50%" y2="0%">
      <stop offset="0%" stop-color="#dc2626"/>
      <stop offset="40%" stop-color="#ea580c"/>
      <stop offset="70%" stop-color="#f97316"/>
      <stop offset="100%" stop-color="#fbbf24"/>
    </linearGradient>
    <linearGradient id="innerFlame" x1="50%" y1="100%" x2="50%" y2="0%">
      <stop offset="0%" stop-color="#f97316"/>
      <stop offset="50%" stop-color="#fbbf24"/>
      <stop offset="100%" stop-color="#fef3c7"/>
    </linearGradient>
  </defs>
  <!-- Main flame -->
  <path d="M16 2C16 2 10 8 10 14c0 2 0.5 3.5 1.5 5C10.5 17.5 9 15 9 12c0-3 2-6 2-6S8 10 8 15c0 4.5 3.5 8 8 8s8-3.5 8-8c0-5-3-9-3-9s2 3 2 6c0 3-1.5 5.5-2.5 7c1-1.5 1.5-3 1.5-5C22 8 16 2 16 2z" fill="url(#fireGradient)"/>
  <!-- Inner flame -->
  <path d="M16 8c0 0-3 3-3 7c0 2.5 1.5 4.5 3 5.5c1.5-1 3-3 3-5.5C19 11 16 8 16 8z" fill="url(#innerFlame)"/>
  <!-- Core glow -->
  <ellipse cx="16" cy="18" rx="1.5" ry="2.5" fill="#fef3c7" opacity="0.9"/>
</svg>
